<?xml version="1.0" standalone="no"?>
<!DOCTYPE svg PUBLIC "-//W3C//DTD SVG 20010904//EN"
 "http://www.w3.org/TR/2001/REC-SVG-20010904/DTD/svg10.dtd">
<svg version="1.0" xmlns="http://www.w3.org/2000/svg"
 width="700.000000pt" height="700.000000pt" viewBox="0 0 700.000000 700.000000"
 preserveAspectRatio="xMidYMid meet">
<metadata>
Created by potrace 1.14, written by Peter Selinger 2001-2017
</metadata>
<g transform="translate(0.000000,700.000000) scale(0.100000,-0.100000)"
fill="#000000" stroke="none">
<path d="M3195 6989 c-99 -14 -121 -20 -171 -44 -74 -36 -137 -108 -192 -222
-26 -54 -52 -112 -58 -129 l-11 -31 -1114 0 c-613 0 -1143 -3 -1179 -7 -92
-10 -135 -23 -170 -52 -47 -40 -65 -86 -76 -194 -5 -46 -4 -6034 1 -6075 14
-119 61 -189 146 -216 63 -19 6109 -25 6209 -5 136 26 174 70 194 226 7 53 7
6037 0 6095 -13 112 -63 183 -142 205 -78 20 -195 23 -1286 24 l-1109 1 -36
85 c-52 123 -92 189 -145 238 -38 35 -95 70 -126 77 -25 6 -70 16 -90 21 -37
10 -587 12 -645 3z m-1519 -1083 l1 -219 1789 1 c984 0 1805 1 1824 1 l35 1
-1 215 c0 118 2 216 5 216 20 4 1011 3 1012 -1 1 -3 2 -1282 3 -2842 1 -1885
-2 -2839 -9 -2841 -9 -2 -5605 0 -5660 2 -20 1 -20 7 -19 2843 1 1564 2 2843
3 2843 1 0 229 0 509 0 l507 0 1 -219z"/>
<path d="M3439 5389 c-238 -20 -457 -176 -553 -394 -120 -270 -56 -584 158
-778 87 -78 237 -153 329 -164 l47 -6 0 -898 c0 -592 3 -899 10 -900 13 -1
104 -1 130 0 20 1 20 10 22 897 l3 897 80 19 c287 68 506 341 508 637 2 155
-31 269 -110 389 -109 165 -291 278 -478 298 -27 3 -54 6 -60 8 -5 1 -44 -1
-86 -5z m193 -174 c175 -45 324 -196 370 -376 8 -30 13 -89 12 -134 -9 -286
-230 -503 -514 -503 -286 0 -511 222 -514 508 -1 149 47 265 153 370 89 88
178 134 285 146 28 4 52 7 53 8 8 7 101 -5 155 -19z"/>
<path d="M3416 5039 c-40 -9 -116 -48 -116 -58 0 -3 15 -7 33 -8 76 -4 210
-52 266 -95 13 -10 27 -18 32 -18 13 0 61 111 55 127 -16 41 -184 74 -270 52z"/>
<path d="M3720 4946 c0 -50 -85 -168 -156 -217 l-46 -31 7 -56 c10 -86 12 -87
80 -46 77 45 128 94 176 168 l39 59 -26 48 c-33 59 -74 102 -74 75z"/>
<path d="M3237 4922 c-19 -22 -57 -98 -57 -114 0 -10 24 -13 93 -14 76 0 104
-5 158 -27 36 -15 70 -27 75 -27 5 0 29 17 54 39 53 45 50 53 -34 94 -107 53
-263 79 -289 49z"/>
<path d="M3198 4752 c-25 -3 -33 -16 -29 -44 0 -4 1 -22 2 -40 4 -59 55 -153
111 -202 28 -24 59 -46 69 -49 17 -4 17 -3 0 37 -27 63 -44 143 -47 221 -1 39
-3 73 -3 76 -1 6 -61 7 -103 1z"/>
<path d="M3348 4745 c-3 -3 -3 -40 -2 -83 4 -85 33 -188 69 -243 l23 -36 71 2
c39 1 74 5 77 8 3 3 -6 21 -20 39 -41 55 -76 140 -82 207 -7 61 -8 62 -48 80
-54 24 -81 32 -88 26z"/>
<path d="M3790 4702 c-36 -48 -156 -151 -176 -152 -7 0 -22 -8 -34 -18 l-22
-18 37 -49 c21 -28 39 -52 41 -53 6 -7 93 58 119 90 16 18 36 51 46 73 20 46
39 149 30 164 -4 6 -22 -11 -41 -37z"/>
<path d="M4830 5028 c-304 -28 -552 -261 -605 -568 -42 -238 80 -521 284 -659
86 -59 217 -111 277 -111 12 0 23 -7 26 -17 2 -10 3 -334 3 -720 -1 -703 -1
-703 19 -704 48 -2 129 1 133 5 3 3 5 324 5 715 l0 711 41 10 c94 23 125 34
182 62 155 78 272 209 330 369 31 86 35 108 40 209 7 128 -25 257 -91 372 -45
76 -159 191 -235 235 -119 71 -270 104 -409 91z m200 -174 c162 -46 292 -168
352 -329 32 -86 32 -244 0 -335 -103 -301 -452 -438 -734 -288 -160 85 -271
271 -271 452 1 150 54 272 164 377 130 124 318 171 489 123z"/>
<path d="M1955 4721 c-212 -52 -376 -188 -465 -384 -170 -379 45 -823 450
-928 l88 -22 -1 -569 c-2 -448 1 -568 11 -569 15 -2 39 -2 100 0 l48 1 -1 566
c0 558 0 567 20 574 11 4 43 13 70 19 72 16 202 83 261 133 101 86 177 198
213 313 116 370 -89 750 -464 860 -85 25 -242 28 -330 6z m280 -157 c268 -71
437 -348 375 -616 -43 -182 -193 -338 -371 -384 -239 -62 -488 52 -594 271
-75 155 -72 315 8 475 19 39 125 156 168 185 42 29 128 64 174 72 17 3 32 7
35 10 9 9 156 0 205 -13z"/>
<path d="M3020 1803 c0 -23 6 -26 50 -24 l25 2 1 -120 c1 -118 1 -119 -18 -96
-45 58 -165 70 -232 24 -132 -90 -121 -365 17 -440 31 -17 104 -21 143 -9 20
7 50 26 66 42 l30 30 -4 -33 -3 -34 60 -2 c81 -3 101 2 101 27 0 16 -7 20 -37
20 -21 0 -38 5 -41 13 -2 6 -3 148 -2 315 0 209 -3 302 -10 303 -6 1 -41 2
-79 3 -63 1 -67 0 -67 -21z m3 -245 c35 -18 47 -35 60 -80 13 -45 15 -150 3
-203 -8 -38 -48 -83 -81 -91 -115 -29 -180 88 -151 268 10 66 59 118 110 118
21 0 47 -5 59 -12z"/>
<path d="M5682 1822 c-17 -3 -22 -9 -20 -25 2 -17 10 -22 38 -22 l35 0 2 -292
1 -292 -35 -3 c-29 -2 -37 -7 -38 -24 -1 -21 2 -22 112 -21 111 1 113 1 113
24 0 20 -5 23 -36 23 l-36 0 4 148 c3 135 5 150 26 179 26 37 57 48 107 39 61
-12 70 -38 73 -213 l4 -153 -36 0 c-31 0 -36 -3 -36 -23 0 -23 2 -24 110 -25
l110 -1 0 24 c0 22 -5 25 -34 25 l-35 0 -3 163 c-4 210 -22 252 -116 264 -71
10 -128 -16 -160 -72 -9 -16 -11 12 -12 128 0 145 0 147 -22 148 -13 0 -39 2
-58 2 -19 1 -45 1 -58 -1z"/>
<path d="M1048 1790 c-158 -49 -230 -159 -224 -340 7 -187 104 -290 299 -316
35 -5 51 -13 59 -28 23 -47 83 -97 132 -111 27 -8 60 -15 73 -15 21 0 23 4 23
54 l0 53 -56 6 c-30 3 -67 13 -82 23 l-25 17 54 17 c140 43 213 144 221 305 8
155 -77 289 -211 331 -76 24 -193 26 -263 4z m219 -72 c49 -45 66 -112 66
-253 0 -111 -5 -143 -33 -199 -26 -55 -80 -85 -142 -80 -56 5 -87 29 -118 90
-22 44 -25 63 -27 179 -3 154 15 223 68 267 51 43 138 41 186 -4z m-282 -44
c-43 -102 -37 -325 11 -439 7 -18 6 -18 -21 3 -66 52 -97 121 -100 225 -4 93
24 167 82 222 38 34 46 31 28 -11z m414 -3 c105 -109 91 -346 -27 -429 l-29
-21 20 57 c37 106 30 332 -12 410 -19 36 6 27 48 -17z"/>
<path d="M3614 1799 c-119 -22 -227 -121 -250 -229 -12 -52 -9 -169 4 -216 27
-92 104 -169 204 -203 104 -35 246 -22 318 29 30 21 72 85 85 128 6 20 3 22
-38 22 -40 0 -46 -3 -52 -27 -23 -92 -134 -145 -224 -107 -85 36 -113 95 -118
249 -5 205 46 301 164 307 96 5 155 -32 188 -118 13 -35 21 -44 41 -44 13 0
24 3 25 8 1 4 2 38 3 76 1 81 -3 85 -104 111 -73 20 -185 26 -246 14z m-88
-111 c-51 -82 -50 -340 1 -442 l15 -29 -29 21 c-73 52 -104 121 -105 232 0 67
4 89 26 134 25 51 75 106 97 106 5 0 3 -10 -5 -22z"/>
<path d="M2327 1610 c-67 -17 -75 -25 -74 -75 0 -40 3 -45 23 -45 15 0 24 8
28 25 19 75 163 83 207 12 11 -18 18 -45 17 -62 -3 -30 -3 -30 -68 -31 -111
-1 -154 -12 -196 -48 -34 -29 -38 -38 -42 -92 -3 -50 0 -64 20 -94 33 -48 71
-65 149 -65 56 0 71 4 102 28 l37 28 0 -25 c0 -24 2 -25 75 -24 72 1 75 2 75
24 0 21 -5 24 -35 24 l-35 0 0 147 c0 169 -14 215 -77 254 -40 25 -144 34
-206 19z m201 -294 c-5 -83 -20 -111 -67 -129 -75 -30 -151 18 -151 94 0 80
39 107 154 107 l68 0 -4 -72z"/>
<path d="M4242 1607 c-41 -13 -93 -60 -118 -107 -15 -27 -19 -56 -19 -125 0
-81 3 -95 28 -138 16 -26 47 -60 70 -75 36 -23 52 -27 117 -27 61 0 83 4 118
25 114 65 146 249 65 371 -49 74 -164 107 -261 76z m147 -49 c38 -23 63 -91
63 -171 0 -92 -15 -147 -48 -181 -15 -14 -29 -26 -33 -27 -3 0 -17 -2 -31 -4
-39 -5 -88 14 -109 43 -41 58 -49 216 -15 288 31 66 112 90 173 52z"/>
<path d="M4720 1601 c-44 -16 -45 -17 -46 -64 0 -39 3 -47 18 -47 9 0 24 13
33 30 21 41 64 61 116 55 23 -3 50 -10 60 -16 25 -13 49 -61 49 -97 0 -29 0
-29 -62 -29 -112 1 -161 -10 -203 -46 -35 -30 -39 -39 -43 -93 -3 -50 0 -64
20 -94 13 -19 38 -42 57 -51 65 -31 161 -20 209 24 l22 20 0 -25 c0 -25 1 -26
75 -25 72 0 75 1 75 24 0 20 -5 23 -35 23 l-35 0 0 148 c0 173 -13 214 -76
253 -50 30 -165 35 -234 10z m230 -273 c0 -102 -36 -148 -115 -148 -70 0 -105
35 -105 106 0 74 40 101 151 102 l69 1 0 -61z"/>
<path d="M5317 1606 c-101 -38 -156 -136 -144 -256 15 -137 88 -211 215 -216
96 -4 168 41 187 118 6 22 3 26 -20 30 -23 5 -29 1 -40 -26 -19 -45 -55 -75
-99 -80 -97 -12 -149 58 -148 200 0 34 5 80 11 102 11 38 53 91 75 93 96 10
130 -4 157 -66 14 -31 26 -45 39 -45 18 0 20 7 20 60 0 59 0 60 -37 75 -54 23
-170 29 -216 11z"/>
<path d="M1620 1585 c0 -22 4 -25 35 -25 l35 0 1 -127 c1 -213 8 -239 68 -280
61 -41 144 -28 196 32 l30 35 0 -37 0 -38 78 -1 c74 0 77 1 77 23 0 20 -5 23
-38 23 l-39 0 0 208 0 207 -77 3 -76 3 0 -26 c0 -24 3 -26 36 -23 l36 3 -1
-127 c0 -140 -5 -170 -33 -210 -20 -30 -71 -45 -113 -34 -54 14 -63 57 -64
293 l-1 122 -75 0 c-73 0 -75 0 -75 -24z"/>
</g>
</svg>
